<?xml version="1.0" encoding="UTF-8"?>
<svg width="40px" height="40px" viewBox="0 0 40 40" version="1.1" xmlns="http://www.w3.org/2000/svg" xmlns:xlink="http://www.w3.org/1999/xlink">
    <title>1备份 4</title>
    <g id="院领导看板" stroke="none" stroke-width="1" fill="none" fill-rule="evenodd">
        <g id="院领导看板-民事情况" transform="translate(-418.000000, -2223.000000)">
            <g id="审判超审限" transform="translate(387.000000, 1972.000000)">
                <g id="1备份-4" transform="translate(31.000000, 251.000000)">
                    <circle id="椭圆形" fill-opacity="0.0971372378" fill="#23C9DA" transform="translate(20.000000, 20.000000) rotate(-360.000000) translate(-20.000000, -20.000000) " cx="20" cy="20" r="20"></circle>
                    <circle id="椭圆形" fill-opacity="0.258877841" fill="#23C9DA" cx="20" cy="20" r="15"></circle>
                    <g id="标签" transform="translate(13.000000, 13.000000)" fill-rule="nonzero">
                        <rect id="矩形" fill="#000000" opacity="0" x="0" y="0" width="16" height="16"></rect>
                        <path d="M14.608,8.064 C14.8533333,8.34133333 14.9546667,8.6 14.912,8.84 C14.8693333,9.08 14.7306667,9.32266667 14.496,9.568 L9.424,14.688 C9.33866667,14.7626667 9.23733333,14.8213333 9.12,14.864 C9.00266667,14.9066667 8.88266667,14.9306667 8.76,14.936 C8.63733333,14.9413333 8.51733333,14.928 8.4,14.896 C8.28266667,14.864 8.18666667,14.8106667 8.112,14.736 C6.84266667,13.456 5.70666667,12.3093333 4.704,11.296 L3.44,10.032 C3.024,9.616 2.65333333,9.24266667 2.328,8.912 C2.00266667,8.58133333 1.736,8.31466667 1.528,8.112 C1.32,7.90933333 1.21066667,7.79733333 1.2,7.776 C1.168,7.73333333 1.112,7.656 1.032,7.544 C0.952,7.432 0.917333333,7.30133333 0.928,7.152 L0.928,6.848 L0.928,6.208 C0.928,5.96266667 0.930666667,5.688 0.936,5.384 C0.941333333,5.08 0.944,4.77333333 0.944,4.464 C0.954666667,3.728 0.965333333,2.912 0.976,2.016 C0.997333333,1.87733333 1.02933333,1.752 1.072,1.64 C1.11466667,1.528 1.19466667,1.41333333 1.312,1.296 C1.41866667,1.17866667 1.53333333,1.09333333 1.656,1.04 C1.77866667,0.986666667 1.89333333,0.96 2,0.96 L7.152,0.96 C7.17333333,0.96 7.22133333,0.962666667 7.296,0.968 C7.37066667,0.973333333 7.424,0.981333333 7.456,0.992 C7.52,1.01333333 7.57866667,1.04 7.632,1.072 C7.68533333,1.104 7.73866667,1.14666667 7.792,1.2 L14.608,8.064 Z M3.392,4.96 C3.81866667,4.96 4.17866667,4.81066667 4.472,4.512 C4.76533333,4.21333333 4.912,3.85066667 4.912,3.424 C4.912,2.99733333 4.76533333,2.63466667 4.472,2.336 C4.17866667,2.03733333 3.81866667,1.888 3.392,1.888 C3.17866667,1.888 2.98133333,1.928 2.8,2.008 C2.61866667,2.088 2.45866667,2.19733333 2.32,2.336 C2.18133333,2.47466667 2.072,2.63733333 1.992,2.824 C1.912,3.01066667 1.872,3.21066667 1.872,3.424 C1.872,3.63733333 1.912,3.83733333 1.992,4.024 C2.072,4.21066667 2.18133333,4.37333333 2.32,4.512 C2.45866667,4.65066667 2.61866667,4.76 2.8,4.84 C2.98133333,4.92 3.17866667,4.96 3.392,4.96 L3.392,4.96 Z" id="形状" fill="#23C9DA"></path>
                    </g>
                </g>
            </g>
        </g>
    </g>
</svg>