<?xml version="1.0" encoding="UTF-8"?>
<svg width="16px" height="15px" viewBox="0 0 16 15" version="1.1" xmlns="http://www.w3.org/2000/svg" xmlns:xlink="http://www.w3.org/1999/xlink">
    <title>形状</title>
    <g id="系统管理" stroke="none" stroke-width="1" fill="none" fill-rule="evenodd">
        <g id="系统管理-组织机构" transform="translate(-145.000000, -246.000000)" fill="#2E3445" fill-rule="nonzero">
            <g id="编组-3" transform="translate(144.000000, 211.000000)">
                <g id="编组" transform="translate(1.000000, 35.000000)">
                    <path d="M16,3.19968738 L16,4.26729191 L15.6858148,4.26729191 C15.3419304,4.26729191 15.0136772,4.40328253 14.7635795,4.64087534 L14.7604533,4.64400156 C14.6463462,4.75029308 14.5119187,4.80187573 14.3556077,4.80187573 L1.64126612,4.80187573 C1.48339195,4.80187573 1.35052755,4.75029308 1.23798359,4.64400156 C1.23642048,4.64243845 1.23485737,4.64243845 1.23329426,4.64087534 C0.983196561,4.40484564 0.654943337,4.26885502 0.311059007,4.26885502 L0,4.26885502 L0,3.19968738 L8,0 L16,3.19968738 Z M15.4232122,13.3317702 L0.575224697,13.3317702 C0.418913638,13.3317702 0.284486127,13.3833529 0.171942165,13.4896444 C0.0562719812,13.5959359 0,13.7209848 0,13.866354 L0,14.9339586 L16,14.9339586 L16,13.866354 C16,13.7209848 15.9421649,13.5959359 15.8280578,13.4896444 C15.7139508,13.3833529 15.5810864,13.3317702 15.4232122,13.3317702 Z M14.9355217,12.2657288 L14.9355217,12.7971864 L1.06760453,12.7971864 L1.06760453,12.2657288 C1.06760453,12.1219226 1.12387651,11.9953107 1.2395467,11.8890191 C1.35365377,11.7827276 1.48808128,11.731145 1.64282923,11.731145 L2.13520907,11.731145 L2.13364596,5.33177022 L4.26729191,5.33177022 L4.26729191,11.731145 L5.33489644,11.731145 L5.33489644,5.33177022 L7.46697929,5.33177022 L7.46697929,11.731145 L8.53927315,11.731145 L8.53927315,5.33177022 L10.671356,5.33177022 L10.671356,11.731145 L11.7358343,11.731145 L11.7358343,5.33177022 L13.8679172,5.33177022 L13.8679172,11.731145 L14.360297,11.731145 C14.5181712,11.731145 14.6494725,11.7827276 14.7635795,11.8890191 C14.8776866,11.9953107 14.9355217,12.1219226 14.9355217,12.2657288 Z" id="形状"></path>
                </g>
            </g>
        </g>
    </g>
</svg>