<?xml version="1.0" encoding="UTF-8"?>
<svg width="16px" height="16px" viewBox="0 0 16 16" version="1.1" xmlns="http://www.w3.org/2000/svg" xmlns:xlink="http://www.w3.org/1999/xlink">
    <title>告警实心</title>
    <g id="质效监督" stroke="none" stroke-width="1" fill="none" fill-rule="evenodd">
        <g transform="translate(-232.000000, -577.000000)" fill-rule="nonzero" id="编组备份-2">
            <g transform="translate(145.000000, 576.000000)">
                <g id="告警实心" transform="translate(87.000000, 1.000000)">
                    <rect id="矩形" fill="#000000" opacity="0" x="0" y="0" width="16" height="16"></rect>
                    <path d="M8,15.5 C3.858,15.5 0.5,12.142 0.5,8 C0.5,3.858 3.858,0.5 8,0.5 C12.142,0.5 15.5,3.858 15.5,8 C15.5,12.142 12.142,15.5 8,15.5 Z M7.5,4 L7.5,9.5 C7.5,9.77614237 7.72385763,10 8,10 C8.27614237,10 8.5,9.77614237 8.5,9.5 L8.5,4 C8.5,3.72385763 8.27614237,3.5 8,3.5 C7.72385763,3.5 7.5,3.72385763 7.5,4 Z M7.25,12.25 C7.25,12.6642136 7.58578644,13 8,13 C8.41421356,13 8.75,12.6642136 8.75,12.25 C8.75,11.8357864 8.41421356,11.5 8,11.5 C7.58578644,11.5 7.25,11.8357864 7.25,12.25 Z" id="形状" fill="#FD9656"></path>
                </g>
            </g>
        </g>
    </g>
</svg>