<?xml version="1.0" encoding="UTF-8"?>
<svg width="20px" height="20px" viewBox="0 0 20 20" version="1.1" xmlns="http://www.w3.org/2000/svg" xmlns:xlink="http://www.w3.org/1999/xlink">
    <title>垃圾桶</title>
    <g id="质效监督" stroke="none" stroke-width="1" fill="none" fill-rule="evenodd">
        <g id="评估方案" transform="translate(-1144.000000, -210.000000)" fill-rule="nonzero">
            <g id="care" transform="translate(144.000000, 200.000000)">
                <g id="编组" transform="translate(930.000000, 10.000000)">
                    <g id="垃圾桶" transform="translate(70.000000, 0.000000)">
                        <rect id="矩形" fill="#000000" opacity="0" x="0" y="0" width="20" height="20"></rect>
                        <path d="M4.0625,5.75 L4.0625,4.0625 L6.625,4.0625 L6.625,3.1875 L13.4375,3.1875 L13.4375,4.0625 L16,4.0625 L16,5.75 L4.0625,5.75 Z M15.125,8.3125 C14.625,8.3125 14.25,8.6875 14.25,9.1875 L14.25,12.75 C14,12.625 13.6875,12.5625 13.375,12.5625 C11.9375,12.5625 10.8125,13.6875 10.8125,15.125 C10.8125,15.4375 10.875,15.6875 11,16 L7.4375,16 C6.5,16 5.75,15.25 5.75,14.3125 L5.75,9.1875 C5.75,8.6875 5.375,8.3125 4.875,8.3125 L4.875,6.625 L15.125,6.625 L15.125,8.3125 L15.125,8.3125 Z M13.4375,13.4375 C14.375,13.4375 15.125,14.1875 15.125,15.125 C15.125,16.0625 14.375,16.8125 13.4375,16.8125 C12.5,16.8125 11.75,16.0625 11.75,15.125 C11.6875,14.1875 12.4375,13.4375 13.4375,13.4375 Z" id="形状" fill="#23C9DA"></path>
                    </g>
                </g>
            </g>
        </g>
    </g>
</svg>