<?xml version="1.0" encoding="UTF-8"?>
<svg width="14px" height="14px" viewBox="0 0 14 14" version="1.1" xmlns="http://www.w3.org/2000/svg" xmlns:xlink="http://www.w3.org/1999/xlink">
    <title>复制</title>
    <g id="质效监督" stroke="none" stroke-width="1" fill="none" fill-rule="evenodd">
        <g id="评估方案" transform="translate(-1221.000000, -213.000000)" fill-rule="nonzero">
            <g id="care" transform="translate(144.000000, 200.000000)">
                <g id="编组" transform="translate(930.000000, 10.000000)">
                    <g id="复制" transform="translate(147.000000, 3.000000)">
                        <rect id="矩形" fill="#000000" opacity="0" x="0" y="5.20564726e-07" width="14" height="14"></rect>
                        <path d="M9.27990721,10.000041 C9.46993565,10.0026472 9.65310477,9.92902797 9.78842493,9.79558725 C9.9237451,9.66214653 9.9999,9.48002491 9.9999,9.28997762 L9.9999,0.710063417 C9.9999,0.520016125 9.9237451,0.337894508 9.78842493,0.204453787 C9.65310477,0.0710130662 9.46993565,-0.00260620188 9.27990721,0 L0.709992896,0 C0.317874647,0 0,0.317945168 0,0.710063417 L0,9.28997762 C0,9.68209587 0.317874647,10.000041 0.709992896,10.000041 L9.27990721,10.000041 L9.27990721,10.000041 Z" id="路径" fill="#23C9DA"></path>
                        <path d="M13.2798672,3.99996 L10.99989,3.99996 L10.99989,10.2099684 C10.99989,10.4194874 10.9166589,10.6204249 10.7685067,10.7685772 C10.6203544,10.9167295 10.4194168,10.99996 10.2098979,10.99996 L3.99996,10.99996 L3.99996,13.2899376 C3.99996,13.4799849 4.0761149,13.6621065 4.21143507,13.7955473 C4.34675523,13.928988 4.52992435,14.0026072 4.71995279,14.000001 L13.2898671,14.000001 C13.6819854,14.000001 13.99986,13.6820559 13.99986,13.2899376 L13.99986,4.71002342 C13.99986,4.51997613 13.9237051,4.33785451 13.7883849,4.20441379 C13.6530648,4.07097307 13.4698956,3.9973538 13.2798672,3.99996 Z" id="路径" fill="#23C9DA"></path>
                    </g>
                </g>
            </g>
        </g>
    </g>
</svg>