<?xml version="1.0" encoding="UTF-8"?>
<svg width="16px" height="16px" viewBox="0 0 16 16" version="1.1" xmlns="http://www.w3.org/2000/svg" xmlns:xlink="http://www.w3.org/1999/xlink">
    <title>电脑_jurassic</title>
    <g id="院领导看板" stroke="none" stroke-width="1" fill="none" fill-rule="evenodd">
        <g id="院领导看板-本院综合" transform="translate(-510.000000, -23.000000)" fill-rule="nonzero">
            <g id="庭长看板" transform="translate(494.000000, 0.000000)">
                <g id="电脑_jurassic" transform="translate(16.000000, 23.000000)">
                    <rect id="矩形" fill="#000000" opacity="0" x="0" y="0" width="16" height="16"></rect>
                    <path d="M13.6375,2 L2.3625,2 C1.6109375,2 1,2.61875 1,3.3796875 L1,10.40625 C1,11.1671875 1.6109375,11.7859375 2.3625,11.7859375 L7.028125,11.7859375 L4.53125,14.5 L11.46875,14.5 L8.971875,11.7859375 L13.6375,11.7859375 C14.3890625,11.7859375 15,11.1671875 15,10.40625 L15,3.3796875 C15,2.61875 14.3890625,2 13.6375,2 L13.6375,2 Z M1.990625,3.3796875 C1.990625,3.171875 2.1578125,3.003125 2.3625,3.003125 L13.6375,3.003125 C13.8421875,3.003125 14.009375,3.171875 14.009375,3.3796875 L14.009375,8.146875 L1.990625,8.146875 L1.990625,3.3796875 Z" id="形状" fill="#DFE1EF"></path>
                </g>
            </g>
        </g>
    </g>
</svg>