<?xml version="1.0" encoding="UTF-8"?>
<svg width="16px" height="16px" viewBox="0 0 16 16" version="1.1" xmlns="http://www.w3.org/2000/svg" xmlns:xlink="http://www.w3.org/1999/xlink">
    <title>笔记本_notebook42</title>
    <g id="院领导看板" stroke="none" stroke-width="1" fill="none" fill-rule="evenodd">
        <g id="院领导看板-本院综合" transform="translate(-858.000000, -23.000000)" fill-rule="nonzero">
            <g id="质效监督" transform="translate(842.000000, 0.000000)">
                <g id="笔记本_notebook42" transform="translate(16.000000, 23.000000)">
                    <rect id="矩形" fill="#000000" opacity="0" x="0" y="0" width="16" height="16"></rect>
                    <path d="M10.328,15 C10.6993333,15 11,14.7206364 11,14.3623636 L11,1.63763636 C11,1.28572727 10.7006667,1 10.328,1 L1.67133334,1 C1.30066667,1 1,1.27936364 1,1.63763636 L1,14.3617273 C1,14.7142727 1.29933333,15 1.67133334,15 L10.328,15 Z M13.8,14.35065 L13.8,6.54999999 L14.4,6.54999999 C14.7312,6.54999999 15,6.26529999 15,5.89804999 L15,2.65194999 C15,2.29185 14.7336,2 14.4,2 L12,2 L12,15 L13.2006,15 C13.5318,15 13.8,14.7088 13.8,14.35065 Z" id="形状" fill="#DFE1EF"></path>
                </g>
            </g>
        </g>
    </g>
</svg>