<?xml version="1.0" encoding="UTF-8"?>
<svg width="16px" height="16px" viewBox="0 0 16 16" version="1.1" xmlns="http://www.w3.org/2000/svg" xmlns:xlink="http://www.w3.org/1999/xlink">
    <title>统计分析</title>
    <g id="院领导看板" stroke="none" stroke-width="1" fill="none" fill-rule="evenodd">
        <g id="院领导看板-本院综合" transform="translate(-742.000000, -23.000000)" fill="#DFE1EF" fill-rule="nonzero">
            <g id="统计报表" transform="translate(726.000000, 0.000000)">
                <g id="统计分析" transform="translate(16.000000, 23.000000)">
                    <rect id="矩形" opacity="0" x="0" y="0" width="16" height="16"></rect>
                    <path d="M13.06875,13.2625 L7.6125,8.2 L7.6125,0.7828125 L7.628125,0.7828125 L7.6203125,0.775 C3.515625,0.775 0.1875,4.103125 0.1875,8.2078125 C0.1875,12.3125 3.515625,15.640625 7.6203125,15.640625 C9.7734375,15.640625 11.7109375,14.725 13.06875,13.2625 Z" id="路径"></path>
                    <path d="M8.415625,0.390625 L8.4,0.390625 L8.4,7.8078125 L13.8640625,12.8765625 C15.0953125,11.55 15.8468755,9.7734375 15.8468755,7.821875 C15.8484375,3.71875 12.5203125,0.390625 8.415625,0.390625 Z" id="路径"></path>
                </g>
            </g>
        </g>
    </g>
</svg>