<?xml version="1.0" encoding="UTF-8"?>
<svg width="16px" height="16px" viewBox="0 0 16 16" version="1.1" xmlns="http://www.w3.org/2000/svg" xmlns:xlink="http://www.w3.org/1999/xlink">
    <title>设置</title>
    <g id="院领导看板" stroke="none" stroke-width="1" fill="none" fill-rule="evenodd">
        <g id="院领导看板-本院综合" transform="translate(-974.000000, -23.000000)" fill-rule="nonzero">
            <g id="系统管理" transform="translate(958.000000, 0.000000)">
                <g id="设置" transform="translate(16.000000, 23.000000)">
                    <rect id="矩形" fill="#000000" opacity="0" x="0" y="0" width="16" height="16"></rect>
                    <path d="M14.5131551,6.00804336 L13.600255,5.88036504 C13.3975657,5.85163741 13.2331798,5.71438321 13.1533809,5.52765365 C12.9730352,5.10152723 12.7432142,4.70253246 12.4687058,4.33864922 C12.3458154,4.17585935 12.3091079,3.96359413 12.3857149,3.7752686 L12.7320424,2.92141978 C12.838973,2.65967921 12.7352343,2.35803916 12.4894536,2.217593 L10.5152274,1.07646794 C10.2694466,0.934425797 9.9582307,0.995073003 9.78426898,1.21851008 L9.21929238,1.94148861 C9.09321003,2.10427848 8.8889247,2.1792895 8.68463938,2.15375383 C8.4612023,2.12502621 8.23297729,2.10906642 8.00156032,2.10906642 C7.77014335,2.10906642 7.54191834,2.12502621 7.31848127,2.15375383 C7.11419594,2.1792895 6.90991062,2.10427848 6.78382827,1.94148861 L6.21885166,1.21851008 C6.04488994,0.995073003 5.73367402,0.934425797 5.48789324,1.07646794 L3.51366709,2.21599702 C3.2678863,2.35803916 3.16574364,2.65808323 3.27107826,2.9198238 L3.61740573,3.77367262 C3.69401272,3.96359413 3.65730521,4.17426337 3.53441481,4.33705324 C3.25990641,4.70093648 3.02848944,5.09993125 2.84973978,5.52605767 C2.76994082,5.71438321 2.60555498,5.85163741 2.40286563,5.87876906 L1.48996558,6.00644738 C1.20907326,6.04634686 1,6.28574373 1,6.56982801 L1,8.85048214 C1,9.13297045 1.20907326,9.37236731 1.48836961,9.41226679 L2.40126965,9.53994512 C2.603959,9.56867274 2.76834485,9.70592694 2.8481438,9.8926565 C3.02848944,10.3187829 3.25831043,10.7177777 3.53281884,11.0816609 C3.65570923,11.2444508 3.69241675,11.456716 3.61580975,11.6450416 L3.26948228,12.4988904 C3.16255168,12.7606309 3.26629033,13.062271 3.51207111,13.2027172 L5.48629726,14.3422462 C5.73207804,14.4842884 6.04329396,14.4236412 6.21725569,14.2002041 L6.78223229,13.4772256 C6.90831464,13.3144357 7.11259996,13.2394247 7.31688529,13.2649603 C7.54032236,13.293688 7.76854737,13.3096478 7.99996434,13.3096478 C8.23138131,13.3096478 8.45960632,13.293688 8.6830434,13.2649603 C8.88732872,13.2394247 9.09161405,13.3144357 9.2176964,13.4772256 L9.782673,14.2002041 C9.95663472,14.4236412 10.2678506,14.4842884 10.5136314,14.3422462 L12.4878576,13.2027172 C12.7336384,13.060675 12.835781,12.7606309 12.7304464,12.4988904 L12.3841189,11.6450416 C12.3075119,11.456716 12.3442195,11.2444508 12.4671099,11.0816609 C12.7416183,10.7177777 12.9730352,10.3187829 13.1517849,9.8926565 C13.2315838,9.70433096 13.3959697,9.56707676 13.598659,9.53994512 L14.5115591,9.41226679 C14.7924514,9.37236731 14.9999647,9.13297045 14.9999647,8.85048214 L14.9999647,6.56982801 C15.0031206,6.28574373 14.7940474,6.04634686 14.5131551,6.00804336 Z M8.00156032,9.92617206 C6.77744435,9.92617206 5.78474535,8.93347306 5.78474535,7.70935709 C5.78474535,6.48524112 6.77744435,5.49254211 8.00156032,5.49254211 C9.22567629,5.49254211 10.2183753,6.48524112 10.2183753,7.70935709 C10.2183753,8.93347306 9.22567629,9.92617206 8.00156032,9.92617206 Z" id="形状" fill="#DFE1EF"></path>
                </g>
            </g>
        </g>
    </g>
</svg>